<?xml version="1.0" encoding="iso-8859-1"?>
<!-- Uploaded to: SVG Repo, www.svgrepo.com, Generator: SVG Repo Mixer Tools -->
<svg height="800px" width="800px" version="1.1" id="Layer_1" xmlns="http://www.w3.org/2000/svg" xmlns:xlink="http://www.w3.org/1999/xlink" 
	 viewBox="0 0 512 512" xml:space="preserve">
<path style="fill:#D7D5D9;" d="M292.783,370.719L177.17,469.78l-17.87,15.312l-10.126-11.819
	c-8.236-9.612-22.704-10.728-32.316-2.492l-7.59,6.503l-30.193-35.238l7.59-6.503c9.612-8.236,10.728-22.704,2.492-32.316l0,0
	c-8.236-9.612-22.704-10.728-32.316-2.492l-7.59,6.503L19.056,372l13.856-10.988l178.949-217.67L329.772,42.314l17.98-15.406
	l10.126,11.819c8.236,9.612,22.704,10.728,32.316,2.492l7.59-6.503l30.193,35.238l-7.59,6.503
	c-9.612,8.236-10.728,22.704-2.492,32.316l0,0c8.236,9.612,22.704,10.728,32.316,2.492l7.59-6.503L487.995,140l-13.855,12.692
	L292.783,370.719z"/>
<path style="fill:#77757E;" d="M345.035,368.658H56.591H32.914v-15.563c0-12.657-10.26-22.919-22.919-22.919H0v-46.404h9.995
	c12.657,0,22.919-10.26,22.919-22.919l0,0c0-12.657-10.26-22.919-22.919-22.919H0V191.53h9.995c12.657,0,22.919-10.26,22.919-22.919
	v-25.27h23.677h72.328h58.003h263.539h23.677v15.563c0,12.657,10.26,22.919,22.919,22.919h9.995v46.404h-9.995
	c-12.657,0-22.919,10.26-22.919,22.919l0,0c0,12.657,10.26,22.919,22.919,22.919h9.995v46.404h-9.995
	c-12.657,0-22.919,10.26-22.919,22.919v25.27h-23.677h-37.539H345.035z"/>
<polygon style="fill:#FFDA44;" points="208.629,179.603 428.958,179.603 428.958,332.397 78.095,332.397 78.095,179.603 
	149.515,179.603 "/>
<g style="opacity:0.19;">
	<path style="fill:#3E3B43;" d="M502.005,228.229H512v-46.404h-9.995c-12.657,0-22.919-10.26-22.919-22.919v-15.563H455.41h-34.864
		c-58.307,177.456-172.291,184.395-237.407,225.314h166.845h67.887h37.539h23.677v-25.269c0-12.657,10.26-22.919,22.919-22.919H512
		v-46.404h-9.995c-12.657,0-22.919-10.26-22.919-22.919l0,0C479.086,238.489,489.348,228.229,502.005,228.229z"/>
</g>
<g>
	<path style="fill:#CCA400;" d="M152.158,222.145c2.828,0,4.141,3.03,4.141,5.857c0,3.13-1.515,5.958-4.141,5.958h-14.742v57.861
		c0,2.727-3.332,4.141-6.564,4.141c-3.331,0-6.563-1.414-6.563-4.141V233.96h-14.845c-2.626,0-4.141-2.727-4.141-5.958
		c0-2.827,1.313-5.857,4.141-5.857H152.158z"/>
	<path style="fill:#CCA400;" d="M163.467,226.184c0-2.827,3.231-4.039,6.563-4.039c3.232,0,6.563,1.212,6.563,4.039v65.637
		c0,2.727-3.331,4.141-6.563,4.141c-3.332,0-6.563-1.414-6.563-4.141V226.184z"/>
	<path style="fill:#CCA400;" d="M211.736,233.656c-6.766,0-10.603,3.736-10.603,11.613v28.173c0,7.876,3.837,11.612,10.805,11.612
		c9.189,0,9.996-6.563,10.3-10.805c0.202-3.13,3.03-4.141,6.463-4.141c4.544,0,6.665,1.312,6.665,6.463
		c0,12.219-9.997,19.995-24.134,19.995c-12.723,0-23.226-6.261-23.226-23.125V245.27c0-16.865,10.603-23.125,23.326-23.125
		c14.036,0,24.034,7.472,24.034,19.186c0,5.251-2.121,6.463-6.564,6.463c-3.735,0-6.463-1.111-6.563-4.141
		C222.036,240.523,221.328,233.656,211.736,233.656z"/>
	<path style="fill:#CCA400;" d="M244.248,226.184c0-2.827,3.231-4.039,6.563-4.039c3.232,0,6.563,1.212,6.563,4.039v27.568
		l21.812-29.688c1.01-1.414,2.221-1.918,3.634-1.918c3.332,0,7.574,3.433,7.574,6.766c0,0.706-0.101,1.615-0.808,2.524
		l-18.075,22.621l22.014,33.525c0.504,0.707,0.706,1.515,0.706,2.323c0,3.232-4.039,6.563-7.876,6.563
		c-1.717,0-3.433-0.707-4.544-2.524l-18.984-28.779l-5.453,6.866v19.792c0,2.727-3.331,4.141-6.563,4.141
		c-3.332,0-6.563-1.414-6.563-4.141v-65.638H244.248z"/>
	<path style="fill:#CCA400;" d="M313.113,253.852h15.35c2.626,0,4.141,2.525,4.141,5.251c0,2.322-1.313,5.048-4.141,5.048h-15.35
		v20.298h28.578c2.626,0,4.141,2.727,4.141,5.857c0,2.727-1.313,5.655-4.141,5.655h-35.949c-2.929,0-5.756-1.414-5.756-4.141
		v-65.536c0-2.727,2.827-4.141,5.756-4.141h35.949c2.827,0,4.141,2.929,4.141,5.655c0,3.13-1.515,5.857-4.141,5.857h-28.578V253.852
		z"/>
	<path style="fill:#CCA400;" d="M395.512,222.145c2.828,0,4.141,3.03,4.141,5.857c0,3.13-1.515,5.958-4.141,5.958h-14.742v57.861
		c0,2.727-3.332,4.141-6.564,4.141c-3.331,0-6.563-1.414-6.563-4.141V233.96h-14.845c-2.626,0-4.141-2.727-4.141-5.958
		c0-2.827,1.313-5.857,4.141-5.857H395.512z"/>
</g>
</svg>