<?xml version="1.0" standalone="no"?>
<!DOCTYPE svg PUBLIC "-//W3C//DTD SVG 20010904//EN"
 "http://www.w3.org/TR/2001/REC-SVG-20010904/DTD/svg10.dtd">
<svg version="1.0" xmlns="http://www.w3.org/2000/svg"
 width="255.000000pt" height="197.000000pt" viewBox="0 0 255.000000 197.000000"
 preserveAspectRatio="xMidYMid meet">

<g transform="translate(0.000000,197.000000) scale(0.100000,-0.100000)"
fill="#000000" stroke="none">
<path d="M65 1738 c2 -35 9 -64 14 -64 6 -1 22 -2 36 -3 25 -1 25 -1 25 -106
l0 -104 -40 -12 -40 -12 0 -69 0 -68 39 20 c71 36 185 77 264 96 68 15 77 20
77 40 0 12 3 29 6 38 5 13 -2 16 -35 16 l-41 0 0 48 0 49 145 -74 c161 -81
169 -82 370 -67 75 6 80 8 81 30 2 19 -4 23 -30 26 -30 3 -31 5 -34 56 l-3 52
40 0 c38 0 41 2 41 29 l0 28 -152 7 c-84 4 -165 9 -180 12 -26 5 -28 3 -28
-30 0 -34 2 -36 35 -36 33 0 35 -2 35 -36 l0 -36 -87 48 c-49 26 -111 62 -140
81 -28 19 -64 36 -80 39 -79 13 -194 37 -237 50 -83 24 -84 23 -81 -48z"/>
<path d="M2355 1792 c-11 -2 -74 -15 -140 -27 -66 -13 -109 -24 -95 -24 14 0
78 10 142 22 123 25 176 21 186 -13 4 -12 1 -11 -15 3 -24 21 -66 22 -158 3
-38 -8 -126 -22 -194 -31 -68 -9 -137 -23 -153 -31 l-28 -15 0 -114 c0 -141
-6 -136 186 -170 76 -13 172 -34 211 -45 91 -25 129 -26 142 -2 5 10 11 108
12 216 2 213 0 218 -51 228 -14 3 -34 3 -45 0z m-45 -237 c0 -88 -2 -105 -16
-105 -21 0 -204 20 -231 26 -22 4 -23 9 -23 84 l0 79 43 5 c38 6 85 9 190 14
l37 2 0 -105z"/>
<path d="M2043 1733 c9 -2 23 -2 30 0 6 3 -1 5 -18 5 -16 0 -22 -2 -12 -5z"/>
<path d="M1968 1723 c6 -2 18 -2 25 0 6 3 1 5 -13 5 -14 0 -19 -2 -12 -5z"/>
<path d="M2462 1544 c-3 -249 -1 -247 -184 -199 -100 26 -286 60 -293 53 -3
-2 39 -12 93 -21 53 -10 148 -31 209 -48 125 -35 158 -33 174 7 5 15 8 107 6
213 l-2 186 -3 -191z"/>
<path d="M1906 1699 c-25 -20 -26 -23 -26 -134 0 -104 2 -116 22 -134 24 -23
56 -36 65 -27 4 3 -1 6 -9 6 -8 0 -27 9 -42 21 -25 20 -26 23 -26 135 l0 114
33 20 c17 11 27 20 21 20 -6 0 -23 -9 -38 -21z"/>
<path d="M1560 1690 c-63 -4 -204 -8 -312 -9 l-198 -1 0 -25 c0 -23 4 -25 44
-25 l43 0 6 -51 c4 -29 4 -56 1 -61 -3 -5 -26 -6 -50 -2 -42 6 -44 5 -44 -19
0 -25 1 -25 103 -31 348 -18 521 -28 585 -33 l72 -6 0 35 c0 35 -1 36 -51 42
-27 4 -94 4 -148 0 -54 -4 -128 -3 -164 0 -57 7 -67 10 -67 27 0 17 8 19 84
19 83 0 83 0 79 25 -5 23 -9 24 -81 27 -53 2 -77 7 -80 17 -4 12 29 13 212 6
l216 -7 0 41 0 41 -67 -2 c-38 -1 -120 -5 -183 -8z"/>
<path d="M1121 1261 c-8 -5 -9 -11 -3 -15 5 -3 12 1 16 9 6 17 6 18 -13 6z"/>
<path d="M1158 1225 c3 -17 0 -25 -9 -25 -12 0 -12 -2 0 -9 8 -5 12 -18 8 -30
-3 -13 0 -21 8 -21 8 0 11 9 7 25 -3 20 0 25 17 25 11 0 21 4 21 9 0 5 -9 7
-20 4 -16 -4 -20 0 -20 17 0 20 4 22 30 17 17 -4 30 -2 30 3 0 6 -17 10 -39
10 -35 0 -38 -2 -33 -25z"/>
<path d="M1274 1244 c-6 -3 -9 -16 -6 -29 3 -16 0 -25 -8 -25 -10 0 -10 -3 0
-15 6 -8 9 -19 5 -25 -3 -5 -1 -10 4 -10 6 0 11 21 11 50 0 42 3 50 19 50 24
0 34 -25 16 -40 -10 -8 -11 -18 -2 -45 5 -19 14 -32 19 -29 4 3 1 18 -7 34
-14 26 -13 30 3 39 34 19 -16 61 -54 45z"/>
<path d="M906 1224 c-22 -21 -20 -60 4 -84 24 -24 34 -25 54 -4 19 18 21 75 4
92 -17 17 -44 15 -62 -4z m54 -13 c14 -26 13 -44 -4 -66 -12 -16 -16 -17 -30
-6 -16 13 -22 71 -9 84 12 13 32 7 43 -12z"/>
<path d="M1014 1214 c4 -15 10 -39 13 -55 8 -41 28 -36 30 9 1 25 -1 31 -6 18
-7 -18 -8 -18 -14 -2 -4 10 -7 26 -7 37 0 10 -5 19 -11 19 -7 0 -9 -10 -5 -26z"/>
<path d="M1060 1229 c0 -6 5 -19 10 -29 6 -10 11 -30 12 -44 3 -37 23 -32 24
5 1 18 -2 26 -7 18 -5 -8 -10 1 -14 24 -7 33 -25 53 -25 26z"/>
<path d="M1420 1185 c0 -67 15 -74 19 -8 3 55 3 56 25 47 21 -8 21 -62 -1 -86
-16 -18 -16 -18 0 -12 40 15 49 75 15 98 -44 31 -58 22 -58 -39z"/>
<path d="M802 1171 c2 -35 7 -60 13 -58 6 2 9 15 7 30 -3 20 2 26 20 29 17 2
23 9 23 28 0 21 -5 26 -33 28 l-33 3 3 -60z m53 29 c0 -24 -32 -24 -38 0 -4
17 -1 21 16 18 12 -2 22 -10 22 -18z"/>
<path d="M1111 1214 c0 -11 3 -14 6 -6 3 7 2 16 -1 19 -3 4 -6 -2 -5 -13z"/>
<path d="M1531 1183 c-1 -26 -4 -50 -7 -55 -3 -4 1 -8 9 -8 10 0 13 7 10 20
-4 14 1 22 18 29 18 7 19 10 7 10 -11 1 -18 9 -18 22 0 17 5 20 25 17 14 -3
25 -1 25 3 0 5 -15 9 -33 9 -33 0 -33 -1 -36 -47z"/>
<path d="M1630 1212 c0 -5 8 -9 18 -8 11 1 16 -5 15 -19 -1 -11 -3 -33 -5 -49
-2 -16 2 -31 7 -33 6 -2 10 21 10 55 0 52 -2 57 -22 60 -13 2 -23 -1 -23 -6z"/>
<path d="M644 1193 c-3 -10 -10 -25 -15 -33 -20 -32 -21 -42 -7 -57 12 -12 24
-13 59 -5 24 5 36 10 26 11 -14 1 -17 6 -12 23 6 16 4 20 -9 15 -20 -8 -31 10
-16 28 12 15 6 35 -11 35 -5 0 -12 -8 -15 -17z m26 -2 c0 -6 -4 -13 -10 -16
-5 -3 -10 1 -10 9 0 9 5 16 10 16 6 0 10 -4 10 -9z m-5 -61 c16 -17 16 -20 2
-26 -22 -8 -37 3 -37 27 0 24 12 24 35 -1z"/>
<path d="M1705 1200 c3 -5 8 -10 11 -10 2 0 4 5 4 10 0 6 -5 10 -11 10 -5 0
-7 -4 -4 -10z"/>
<path d="M1750 1180 c0 -11 -4 -20 -9 -20 -14 0 3 -63 19 -68 12 -3 13 -2 1 6
-7 5 -11 15 -7 21 10 16 13 81 4 81 -4 0 -8 -9 -8 -20z"/>
<path d="M1790 1190 c20 -13 33 -13 25 0 -3 6 -14 10 -23 10 -15 0 -15 -2 -2
-10z"/>
<path d="M1853 1163 c-1 -10 -4 -35 -7 -55 -4 -23 -2 -38 4 -38 5 0 10 11 10
25 0 16 6 25 15 25 10 0 15 -11 15 -35 0 -19 4 -35 8 -35 17 0 20 13 10 36 -9
19 -8 28 7 44 14 16 15 22 5 35 -7 8 -18 15 -24 14 -7 0 -6 -2 2 -6 21 -8 14
-43 -9 -43 -17 0 -20 5 -17 25 3 15 1 25 -6 25 -7 0 -12 -8 -13 -17z"/>
<path d="M463 1162 c-8 -5 -8 -21 -1 -59 6 -29 14 -50 18 -48 4 3 3 25 -2 51
-11 50 -6 64 20 48 21 -14 28 -73 10 -86 -10 -8 -10 -9 2 -5 8 2 19 15 24 30
17 46 -32 94 -71 69z"/>
<path d="M1210 1150 c-13 -8 -12 -10 3 -10 9 0 17 5 17 10 0 12 -1 12 -20 0z"/>
<path d="M1785 1151 c-3 -5 -1 -12 5 -16 5 -3 10 1 10 9 0 18 -6 21 -15 7z"/>
<path d="M408 1095 c8 -30 20 -55 25 -55 5 0 6 7 3 16 -3 9 -9 33 -12 55 -4
21 -12 39 -19 39 -9 0 -9 -13 3 -55z"/>
<path d="M1960 1131 c-5 -11 -10 -28 -10 -39 0 -19 29 -52 46 -52 5 0 1 5 -8
11 -22 13 -24 62 -2 83 14 14 14 16 0 16 -8 0 -20 -9 -26 -19z"/>
<path d="M2022 1136 c7 -8 17 -12 22 -9 4 3 2 9 -5 14 -22 13 -31 11 -17 -5z"/>
<path d="M354 1132 c-7 -5 -6 -15 3 -32 12 -25 12 -25 10 7 -1 18 -2 33 -2 33
0 0 -5 -4 -11 -8z"/>
<path d="M2090 1110 c0 -11 -7 -36 -14 -55 -8 -19 -11 -35 -6 -35 4 0 17 -3
27 -6 13 -4 15 -3 5 4 -19 13 -11 48 10 44 9 -1 19 2 22 7 3 5 -2 8 -12 7 -13
-1 -16 6 -14 27 1 15 -2 27 -8 27 -5 0 -10 -9 -10 -20z"/>
<path d="M297 1113 c-13 -21 24 -103 45 -103 6 0 5 6 -2 15 -6 8 -18 33 -24
56 -7 23 -16 38 -19 32z"/>
<path d="M2135 1106 c11 -8 24 -12 29 -8 5 3 1 9 -10 13 -31 12 -39 10 -19 -5z"/>
<path d="M1780 1096 c0 -2 7 -6 15 -10 8 -3 15 -1 15 4 0 6 -7 10 -15 10 -8 0
-15 -2 -15 -4z"/>
<path d="M2020 1075 c0 -14 0 -28 -1 -32 0 -4 3 -9 8 -10 4 -2 8 13 9 32 0 19
-3 35 -8 35 -4 0 -8 -11 -8 -25z"/>
<path d="M235 1065 c25 -24 34 -65 14 -65 -5 0 -7 -4 -4 -10 3 -5 -1 -10 -9
-10 -21 0 -48 56 -41 83 l5 22 -11 -22 c-14 -28 -4 -69 20 -82 20 -11 91 -3
91 10 0 5 -6 6 -14 3 -11 -4 -14 2 -14 25 1 32 -25 71 -48 71 -8 0 -3 -10 11
-25z"/>
<path d="M2204 1073 c4 -9 10 -36 13 -60 6 -46 17 -56 26 -23 3 11 1 18 -4 14
-7 -4 -15 51 -10 79 0 4 -6 7 -15 7 -11 0 -14 -5 -10 -17z"/>
<path d="M368 1047 c-3 -19 -2 -25 4 -19 6 6 8 18 6 28 -3 14 -5 12 -10 -9z"/>
<path d="M2260 1059 c0 -5 5 -7 10 -4 6 3 10 8 10 11 0 2 -4 4 -10 4 -5 0 -10
-5 -10 -11z"/>
<path d="M2290 1049 c0 -5 5 -7 10 -4 6 3 10 8 10 11 0 2 -4 4 -10 4 -5 0 -10
-5 -10 -11z"/>
<path d="M128 1045 c-5 -5 19 -70 39 -104 1 -1 7 0 13 4 8 5 9 10 2 14 -6 4
-19 26 -29 49 -10 24 -21 40 -25 37z"/>
<path d="M2323 1044 c3 -3 -3 -28 -13 -55 -11 -27 -16 -49 -11 -49 4 0 16 20
25 45 19 48 25 52 44 33 8 -8 12 -8 12 -1 0 6 -14 16 -32 22 -17 6 -29 8 -25
5z"/>
<path d="M2125 1010 c3 -5 8 -10 11 -10 2 0 4 5 4 10 0 6 -5 10 -11 10 -5 0
-7 -4 -4 -10z"/>
<path d="M2403 1003 c-19 -7 -15 -38 7 -58 41 -38 9 -64 -34 -27 -21 17 -21
17 -2 -5 22 -26 48 -29 66 -8 10 12 7 21 -15 47 -25 30 -26 33 -9 45 18 13 11
16 -13 6z"/>
<path d="M37 994 c-3 -5 8 -31 23 -57 15 -27 30 -45 32 -40 6 11 -48 107 -55
97z"/>
<path d="M2440 991 c0 -5 5 -13 10 -16 6 -3 10 -2 10 4 0 5 -4 13 -10 16 -5 3
-10 2 -10 -4z"/>
<path d="M117 926 c-4 -10 -1 -13 9 -9 7 3 14 9 14 14 0 14 -17 10 -23 -5z"/>
<path d="M1899 809 c-32 -61 -30 -129 6 -174 15 -18 15 -17 0 12 -19 41 -19
115 0 153 9 17 13 30 11 30 -3 0 -10 -10 -17 -21z"/>
<path d="M2190 828 c0 -3 7 -19 15 -34 19 -37 19 -85 1 -129 -19 -44 -12 -46
10 -3 20 38 15 114 -9 149 -10 13 -17 21 -17 17z"/>
<path d="M438 804 c-12 -11 -10 -134 2 -134 6 0 10 16 10 36 0 45 24 42 28 -4
2 -18 8 -32 13 -32 6 0 9 17 7 38 -2 29 -8 38 -25 40 -16 2 -23 11 -25 34 -2
16 -6 26 -10 22z"/>
<path d="M1059 808 c0 -2 -1 -33 -2 -71 -1 -47 2 -67 10 -67 7 0 10 7 7 15 -4
8 -2 15 4 15 5 0 12 -7 16 -15 3 -8 11 -15 17 -15 7 0 6 8 -4 24 -14 21 -14
25 1 40 15 15 15 16 -1 16 -9 0 -16 -5 -14 -11 1 -6 -4 -14 -12 -17 -11 -4
-13 5 -9 42 3 25 2 46 -3 46 -5 0 -9 -1 -10 -2z"/>
<path d="M1567 799 c-5 -9 -7 -20 -6 -25 1 -5 0 -13 -1 -19 -1 -5 -1 -25 0
-44 1 -24 -2 -32 -12 -29 -7 3 -13 19 -13 36 0 23 -3 28 -12 20 -17 -14 -16
-57 1 -64 8 -3 25 -4 38 -2 22 3 23 5 18 73 -4 43 -9 64 -13 54z"/>
<path d="M2506 802 c-4 -7 -8 -38 -7 -68 0 -39 -3 -54 -12 -51 -7 2 -12 18
-12 35 0 24 -3 28 -13 20 -22 -19 -10 -61 19 -69 15 -3 31 -4 35 0 5 3 7 38 4
76 -3 44 -8 65 -14 57z"/>
<path d="M53 738 c25 -34 50 -64 55 -66 6 -2 12 24 14 62 3 61 1 66 -17 66
-15 0 -16 -3 -7 -9 8 -5 12 -23 10 -47 l-3 -39 -33 48 c-18 26 -40 47 -48 47
-10 0 -1 -20 29 -62z"/>
<path d="M779 791 c9 -6 12 -25 10 -65 l-4 -56 38 0 c20 0 37 4 37 9 0 4 -12
6 -26 3 -26 -5 -26 -5 -22 57 3 59 2 61 -22 61 -18 0 -21 -3 -11 -9z"/>
<path d="M1251 783 c0 -11 3 -13 6 -5 2 6 11 12 20 12 12 0 14 -12 11 -60 -2
-48 0 -60 12 -60 12 0 14 12 12 60 -3 48 -1 60 11 60 9 0 18 -8 20 -17 4 -14
5 -12 6 5 1 20 -3 22 -49 22 -41 0 -50 -3 -49 -17z"/>
<path d="M1948 735 c2 -41 8 -65 15 -65 8 0 11 19 9 60 -3 49 -1 60 11 60 22
0 31 -38 15 -57 -11 -14 -11 -16 1 -12 8 3 19 13 25 22 16 26 -5 51 -45 55
l-34 3 3 -66z"/>
<path d="M2298 734 l4 -65 36 3 c27 2 37 8 38 21 1 12 1 13 -3 2 -2 -8 -15
-15 -29 -15 -22 0 -24 3 -24 54 0 34 5 56 13 59 6 3 1 6 -13 6 -25 1 -25 0
-22 -65z"/>
<path d="M1610 780 c0 -5 5 -10 10 -10 6 0 10 5 10 10 0 6 -4 10 -10 10 -5 0
-10 -4 -10 -10z"/>
<path d="M299 763 c-2 -37 3 -88 9 -95 4 -4 14 -3 22 2 10 7 11 10 3 10 -8 0
-13 13 -13 29 0 16 6 32 13 34 10 4 10 6 0 6 -7 1 -13 8 -13 16 0 21 -20 19
-21 -2z"/>
<path d="M2135 768 c-4 -10 -16 -18 -27 -18 -10 0 -17 -4 -13 -10 3 -5 12 -7
20 -3 12 4 15 -3 15 -31 0 -31 3 -36 23 -35 12 0 16 3 10 6 -7 2 -13 18 -13
34 0 16 5 29 13 29 8 0 9 3 1 8 -6 4 -13 14 -16 22 -5 13 -7 12 -13 -2z"/>
<path d="M2398 763 c-2 -10 -1 -34 0 -55 3 -31 8 -38 26 -38 19 1 19 2 4 11
-10 5 -18 19 -18 29 0 10 8 24 18 29 9 6 11 11 5 11 -7 0 -13 7 -13 15 0 21
-18 19 -22 -2z"/>
<path d="M151 732 c-16 -29 -2 -62 25 -62 12 0 25 4 28 9 4 5 -2 7 -13 4 -11
-3 -21 2 -24 11 -4 11 -1 16 12 16 10 0 20 3 24 6 8 8 -3 34 -14 34 -4 0 -6
-7 -3 -15 4 -10 0 -15 -11 -15 -11 0 -15 5 -11 15 8 21 -1 19 -13 -3z"/>
<path d="M227 737 c-6 -16 40 -70 48 -57 4 6 -5 24 -18 40 -16 19 -27 25 -30
17z"/>
<path d="M360 736 c-6 -8 -10 -25 -8 -38 2 -18 10 -24 33 -25 28 -3 29 -2 6 7
-19 8 -22 16 -19 40 5 34 5 35 -12 16z"/>
<path d="M395 740 c3 -5 8 -10 11 -10 2 0 4 5 4 10 0 6 -5 10 -11 10 -5 0 -7
-4 -4 -10z"/>
<path d="M524 725 c-9 -37 2 -55 33 -54 27 0 27 1 6 9 -28 12 -30 30 -3 30 21
0 28 24 10 35 -5 3 -10 -1 -10 -9 0 -9 -5 -16 -11 -16 -6 0 -9 7 -5 15 3 8 1
15 -4 15 -5 0 -12 -11 -16 -25z"/>
<path d="M605 710 c0 -22 5 -40 11 -40 6 0 10 14 10 32 -1 17 5 33 12 35 8 3
12 -7 12 -31 0 -23 5 -36 13 -36 9 0 11 12 9 40 -4 38 -6 40 -36 40 -31 0 -32
-2 -31 -40z"/>
<path d="M688 739 c6 -7 12 -26 12 -41 0 -15 5 -28 11 -28 6 0 9 16 7 37 -2
29 -8 39 -23 41 -16 3 -18 1 -7 -9z"/>
<path d="M886 741 c-3 -5 1 -8 10 -7 11 1 17 -9 20 -27 2 -19 -1 -27 -9 -24
-7 3 -11 10 -9 16 1 7 -2 10 -8 6 -19 -11 -10 -33 15 -37 13 -3 26 -4 28 -2 1
2 1 21 -1 43 -3 32 -8 41 -22 41 -11 0 -21 -4 -24 -9z"/>
<path d="M960 710 c0 -22 5 -40 10 -40 6 0 10 18 10 40 0 22 -4 40 -10 40 -5
0 -10 -18 -10 -40z"/>
<path d="M998 739 c6 -7 12 -26 12 -41 0 -15 5 -28 11 -28 6 0 9 16 7 37 -2
29 -8 39 -23 41 -16 3 -18 1 -7 -9z"/>
<path d="M1146 741 c-3 -5 2 -8 11 -7 10 1 17 -9 20 -26 2 -16 -1 -28 -7 -28
-5 0 -10 8 -10 17 0 13 -3 14 -11 6 -18 -18 -4 -41 23 -36 21 4 23 9 20 44 -3
30 -8 39 -22 39 -11 0 -21 -4 -24 -9z"/>
<path d="M1370 709 c0 -25 5 -39 13 -39 7 0 12 13 12 33 0 20 5 31 13 30 6 -2
12 1 12 6 0 5 -11 9 -25 9 -22 0 -25 -5 -25 -39z"/>
<path d="M1453 744 c19 -6 25 -64 6 -64 -6 0 -8 7 -5 16 4 10 1 14 -6 12 -23
-8 -14 -31 14 -39 34 -9 36 -6 29 39 -5 30 -11 37 -31 39 -15 1 -18 0 -7 -3z"/>
<path d="M1608 710 c2 -22 8 -40 13 -40 5 0 9 18 9 40 0 26 -5 40 -13 40 -9 0
-11 -12 -9 -40z"/>
<path d="M1658 710 c5 -50 22 -53 22 -4 0 24 4 34 13 31 6 -2 12 -18 12 -35 0
-19 5 -32 12 -32 7 0 13 11 13 24 0 43 -10 56 -44 56 -31 0 -31 -1 -28 -40z"/>
<path d="M1759 745 c-4 -5 -6 -37 -5 -70 1 -49 4 -60 19 -63 47 -9 63 57 17
68 -24 6 -24 7 -4 14 25 8 40 56 18 56 -8 0 -14 -11 -14 -25 0 -34 -18 -32
-22 3 -2 15 -6 23 -9 17z m49 -102 c5 -17 -26 -29 -40 -15 -6 6 -7 15 -3 22 9
14 37 9 43 -7z"/>
<path d="M2057 710 c15 -36 33 -54 33 -31 0 5 3 18 6 28 5 14 4 15 -4 4 -9
-12 -12 -10 -17 12 -4 15 -13 27 -20 27 -11 0 -10 -8 2 -40z"/>
<path d="M20 680 c0 -5 5 -10 11 -10 5 0 7 5 4 10 -3 6 -8 10 -11 10 -2 0 -4
-4 -4 -10z"/>
<path d="M220 681 c0 -5 7 -12 16 -15 14 -5 15 -4 4 9 -14 17 -20 19 -20 6z"/>
<path d="M1558 571 c8 -4 13 -11 13 -15 -1 -3 1 -6 4 -6 3 0 5 2 5 5 0 3 0 10
0 15 0 6 -8 10 -17 10 -14 0 -15 -2 -5 -9z"/>
<path d="M446 557 c3 -10 9 -15 12 -12 3 3 0 11 -7 18 -10 9 -11 8 -5 -6z"/>
<path d="M670 555 c0 -8 2 -15 4 -15 2 0 6 7 10 15 3 8 1 15 -4 15 -6 0 -10
-7 -10 -15z"/>
<path d="M723 543 c-3 -10 -8 -22 -11 -27 -3 -5 0 -6 5 -3 11 7 25 47 17 47
-3 0 -7 -8 -11 -17z"/>
<path d="M362 530 c0 -14 2 -19 5 -12 2 6 2 18 0 25 -3 6 -5 1 -5 -13z"/>
<path d="M1186 535 c-3 -9 -5 -31 -5 -48 1 -27 3 -24 9 13 8 48 6 61 -4 35z"/>
<path d="M1441 524 c0 -11 3 -14 6 -6 3 7 2 16 -1 19 -3 4 -6 -2 -5 -13z"/>
<path d="M1945 530 c-3 -6 1 -7 9 -4 18 7 21 14 7 14 -6 0 -13 -4 -16 -10z"/>
<path d="M328 505 c-3 -14 -1 -25 3 -25 5 0 9 11 9 25 0 14 -2 25 -4 25 -2 0
-6 -11 -8 -25z"/>
<path d="M520 526 c0 -2 11 -6 25 -8 13 -3 22 -1 19 3 -5 9 -44 13 -44 5z"/>
<path d="M424 498 c-10 -12 -13 -18 -7 -14 7 4 22 2 33 -4 16 -9 20 -8 20 4 0
10 -6 13 -17 9 -12 -5 -15 -2 -10 10 9 23 4 21 -19 -5z"/>
<path d="M832 490 c0 -14 2 -19 5 -12 2 6 2 18 0 25 -3 6 -5 1 -5 -13z"/>
<path d="M882 485 c0 -16 2 -22 5 -12 2 9 2 23 0 30 -3 6 -5 -1 -5 -18z"/>
<path d="M1032 490 c0 -14 2 -19 5 -12 2 6 2 18 0 25 -3 6 -5 1 -5 -13z"/>
<path d="M1237 486 c10 -13 19 -23 21 -21 5 5 -22 45 -31 45 -4 0 0 -11 10
-24z"/>
<path d="M1404 495 c-3 -8 -4 -20 -2 -27 3 -7 7 -1 10 15 6 29 1 36 -8 12z"/>
<path d="M1672 490 c0 -14 2 -19 5 -12 2 6 2 18 0 25 -3 6 -5 1 -5 -13z"/>
<path d="M1942 485 c0 -16 2 -22 5 -12 2 9 2 23 0 30 -3 6 -5 -1 -5 -18z"/>
<path d="M2026 493 c-6 -14 -5 -15 5 -6 7 7 10 15 7 18 -3 3 -9 -2 -12 -12z"/>
<path d="M2202 490 c0 -14 2 -19 5 -12 2 6 2 18 0 25 -3 6 -5 1 -5 -13z"/>
<path d="M771 484 c0 -11 3 -14 6 -6 3 7 2 16 -1 19 -3 4 -6 -2 -5 -13z"/>
<path d="M1321 484 c0 -11 3 -14 6 -6 3 7 2 16 -1 19 -3 4 -6 -2 -5 -13z"/>
<path d="M1516 491 c-4 -5 3 -7 14 -4 23 6 26 13 6 13 -8 0 -17 -4 -20 -9z"/>
<path d="M642 470 c0 -14 2 -19 5 -12 2 6 2 18 0 25 -3 6 -5 1 -5 -13z"/>
<path d="M1122 470 c0 -14 2 -19 5 -12 2 6 2 18 0 25 -3 6 -5 1 -5 -13z"/>
<path d="M1280 476 c0 -8 4 -17 9 -20 5 -4 7 3 4 14 -6 23 -13 26 -13 6z"/>
<path d="M1762 470 c0 -14 2 -19 5 -12 2 6 2 18 0 25 -3 6 -5 1 -5 -13z"/>
<path d="M907 467 c-4 -10 1 -14 16 -13 11 1 22 8 24 16 4 13 3 13 -6 0 -9
-12 -13 -13 -20 -2 -7 11 -9 11 -14 -1z"/>
<path d="M1001 464 c0 -11 3 -14 6 -6 3 7 2 16 -1 19 -3 4 -6 -2 -5 -13z"/>
<path d="M1821 464 c0 -11 3 -14 6 -6 3 7 2 16 -1 19 -3 4 -6 -2 -5 -13z"/>
<path d="M1573 458 c-15 -20 -25 -38 -20 -38 3 0 12 11 21 25 17 26 16 35 -1
13z"/>
<path d="M765 340 c-3 -6 1 -7 9 -4 18 7 21 14 7 14 -6 0 -13 -4 -16 -10z"/>
<path d="M1145 340 c-3 -6 1 -7 9 -4 18 7 21 14 7 14 -6 0 -13 -4 -16 -10z"/>
<path d="M1245 340 c-3 -6 1 -7 9 -4 18 7 21 14 7 14 -6 0 -13 -4 -16 -10z"/>
<path d="M1596 342 c-3 -5 1 -9 9 -9 8 0 12 4 9 9 -3 4 -7 8 -9 8 -2 0 -6 -4
-9 -8z"/>
<path d="M1921 334 c0 -11 3 -14 6 -6 3 7 2 16 -1 19 -3 4 -6 -2 -5 -13z"/>
<path d="M1510 320 c-9 -6 -10 -10 -3 -10 6 0 15 5 18 10 8 12 4 12 -15 0z"/>
<path d="M1542 305 c0 -16 2 -22 5 -12 2 9 2 23 0 30 -3 6 -5 -1 -5 -18z"/>
<path d="M1891 314 c0 -11 3 -14 6 -6 3 7 2 16 -1 19 -3 4 -6 -2 -5 -13z"/>
<path d="M612 295 c0 -16 2 -22 5 -12 2 9 2 23 0 30 -3 6 -5 -1 -5 -18z"/>
<path d="M1125 310 c-3 -5 -1 -10 4 -10 6 0 11 5 11 10 0 6 -2 10 -4 10 -3 0
-8 -4 -11 -10z"/>
<path d="M1572 305 c-11 -12 -10 -15 3 -15 8 0 15 7 15 15 0 18 -2 18 -18 0z"/>
<path d="M845 300 c3 -5 8 -10 11 -10 2 0 4 5 4 10 0 6 -5 10 -11 10 -5 0 -7
-4 -4 -10z"/>
<path d="M1227 299 c6 -6 9 -19 6 -28 -4 -13 -3 -13 5 -2 12 16 5 41 -11 41
-8 0 -8 -3 0 -11z"/>
<path d="M711 284 c0 -11 3 -14 6 -6 3 7 2 16 -1 19 -3 4 -6 -2 -5 -13z"/>
<path d="M812 280 c0 -14 2 -19 5 -12 2 6 2 18 0 25 -3 6 -5 1 -5 -13z"/>
<path d="M1192 280 c0 -14 2 -19 5 -12 2 6 2 18 0 25 -3 6 -5 1 -5 -13z"/>
<path d="M755 279 c-4 -6 -5 -12 -2 -15 2 -3 7 2 10 11 7 17 1 20 -8 4z"/>
<path d="M782 260 c0 -19 2 -27 5 -17 2 9 2 25 0 35 -3 9 -5 1 -5 -18z"/>
<path d="M1062 270 c0 -14 2 -19 5 -12 2 6 2 18 0 25 -3 6 -5 1 -5 -13z"/>
<path d="M1135 279 c-4 -6 -5 -12 -2 -15 2 -3 7 2 10 11 7 17 1 20 -8 4z"/>
<path d="M1162 260 c0 -19 2 -27 5 -17 2 9 2 25 0 35 -3 9 -5 1 -5 -18z"/>
<path d="M1355 279 c-4 -6 -5 -12 -2 -15 2 -3 7 2 10 11 7 17 1 20 -8 4z"/>
<path d="M1422 270 c0 -14 2 -19 5 -12 2 6 2 18 0 25 -3 6 -5 1 -5 -13z"/>
<path d="M1695 279 c-4 -6 -5 -12 -2 -15 2 -3 7 2 10 11 7 17 1 20 -8 4z"/>
<path d="M1856 273 c-6 -14 -5 -15 5 -6 7 7 10 15 7 18 -3 3 -9 -2 -12 -12z"/>
<path d="M1911 274 c0 -11 3 -14 6 -6 3 7 2 16 -1 19 -3 4 -6 -2 -5 -13z"/>
<path d="M1971 274 c0 -11 3 -14 6 -6 3 7 2 16 -1 19 -3 4 -6 -2 -5 -13z"/>
<path d="M1581 264 c0 -11 3 -14 6 -6 3 7 2 16 -1 19 -3 4 -6 -2 -5 -13z"/>
<path d="M1721 264 c0 -11 3 -14 6 -6 3 7 2 16 -1 19 -3 4 -6 -2 -5 -13z"/>
<path d="M1741 254 c0 -11 3 -14 6 -6 3 7 2 16 -1 19 -3 4 -6 -2 -5 -13z"/>
<path d="M1882 250 c0 -14 2 -19 5 -12 2 6 2 18 0 25 -3 6 -5 1 -5 -13z"/>
<path d="M941 244 c0 -11 3 -14 6 -6 3 7 2 16 -1 19 -3 4 -6 -2 -5 -13z"/>
<path d="M1261 244 c0 -11 3 -14 6 -6 3 7 2 16 -1 19 -3 4 -6 -2 -5 -13z"/>
<path d="M1767 248 c-6 -17 29 -22 39 -6 5 7 2 8 -6 3 -7 -4 -15 -2 -20 5 -5
9 -8 8 -13 -2z"/>
<path d="M1931 244 c0 -11 3 -14 6 -6 3 7 2 16 -1 19 -3 4 -6 -2 -5 -13z"/>
<path d="M1490 243 c0 -19 21 -27 33 -13 9 10 9 11 -2 5 -8 -4 -17 -2 -22 6
-6 9 -9 10 -9 2z"/>
<path d="M957 221 c-2 -10 -1 -25 4 -32 6 -10 9 -4 9 19 0 36 -5 42 -13 13z"/>
<path d="M1004 148 c-5 -7 -3 -8 5 -4 7 5 17 1 25 -9 11 -15 12 -14 12 4 0 23
-30 29 -42 9z"/>
<path d="M1234 129 c-3 -6 -17 -9 -30 -6 -13 2 -21 0 -18 -4 8 -14 40 -10 54
6 7 8 10 15 7 15 -3 0 -9 -5 -13 -11z"/>
<path d="M1007 109 c7 -7 15 -10 18 -7 3 3 -2 9 -12 12 -14 6 -15 5 -6 -5z"/>
<path d="M1092 91 c-8 -5 -12 -16 -10 -25 2 -12 6 -10 15 9 6 14 10 25 10 25
-1 0 -8 -4 -15 -9z"/>
<path d="M1285 90 c-3 -6 1 -7 9 -4 18 7 21 14 7 14 -6 0 -13 -4 -16 -10z"/>
<path d="M1345 90 c-3 -6 1 -7 9 -4 18 7 21 14 7 14 -6 0 -13 -4 -16 -10z"/>
<path d="M1395 90 c-3 -5 -1 -10 4 -10 6 0 11 5 11 10 0 6 -2 10 -4 10 -3 0
-8 -4 -11 -10z"/>
<path d="M1464 89 c-5 -8 -3 -9 6 -4 7 4 16 2 22 -6 8 -12 9 -12 6 0 -6 20
-24 25 -34 10z"/>
<path d="M1121 74 c0 -11 3 -14 6 -6 3 7 2 16 -1 19 -3 4 -6 -2 -5 -13z"/>
<path d="M1210 77 c0 -7 9 -13 20 -13 11 0 20 1 20 3 0 1 -9 7 -20 13 -15 8
-20 8 -20 -3z"/>
<path d="M1410 74 c-24 -13 -24 -14 -4 -14 12 0 24 7 28 15 3 8 4 15 3 14 -1
-1 -13 -7 -27 -15z"/>
<path d="M1450 56 c0 -8 4 -17 9 -20 5 -4 7 3 4 14 -6 23 -13 26 -13 6z"/>
<path d="M1040 40 c-8 -5 -12 -12 -9 -15 4 -3 12 1 19 10 14 17 11 19 -10 5z"/>
<path d="M1280 40 c-9 -6 -10 -10 -3 -10 6 0 15 5 18 10 8 12 4 12 -15 0z"/>
</g>
</svg>
